<?xml version="1.0" encoding="UTF-8" standalone="no"?><!-- Generator: Gravit.io --><svg xmlns="http://www.w3.org/2000/svg" xmlns:xlink="http://www.w3.org/1999/xlink" style="isolation:isolate" viewBox="0 0 400 400" width="400pt" height="400pt"><defs><clipPath id="_clipPath_elqfK6bD0FtwzEAwWVYgavjypIUqJynP"><rect width="400" height="400"/></clipPath></defs><g clip-path="url(#_clipPath_elqfK6bD0FtwzEAwWVYgavjypIUqJynP)"><rect width="400" height="400" style="fill:rgb(102,47,47)" fill-opacity="0"/><g style="isolation:isolate"><path d=" M 369.187 316.837 C 387.323 284.791 393.951 242.783 387.711 193.874 C 375.243 96.557 326.066 29.371 255.07 13.094 C 249.289 11.75 239.647 10.823 228.989 10.367 C 224.686 10.068 220.292 9.953 215.771 10.017 C 202.961 9.906 190.396 10.45 182.689 11.709 C 151.892 16.819 122.453 29.711 96.845 48.09 C 58.331 74.472 28.671 112.843 14.997 157.137 C 11.622 168.159 10.433 175.245 10.112 189.742 C 10.002 191.814 9.972 193.904 10.027 196.098 C 10.02 197.516 10.016 198.97 10.016 200.492 C 10.016 236.911 17.162 260.106 37.302 291.756 C 48.996 310.182 78.88 340.314 98.154 353.104 C 140.599 381.068 190.19 393.641 240.864 389.089 C 304.145 383.572 346.124 360.091 369.187 316.837 Z " fill="rgb(132,193,136)"/><path d=" M 298.676 159.582 L 298.676 159.582 L 298.676 159.582 Q 296.126 161.945 292.52 161.945 L 292.52 161.945 L 292.52 161.945 Q 288.913 161.945 286.426 159.582 L 286.426 159.582 L 286.426 159.582 Q 283.939 157.219 283.939 153.737 L 283.939 153.737 L 283.939 153.737 Q 283.939 150.006 286.426 147.581 L 286.426 147.581 L 286.426 147.581 Q 288.913 145.156 292.52 145.156 L 292.52 145.156 L 292.52 145.156 Q 296.251 145.156 298.738 147.581 L 298.738 147.581 L 298.738 147.581 Q 301.225 150.006 301.225 153.737 L 301.225 153.737 L 301.225 153.737 Q 301.225 157.219 298.676 159.582 Z  M 276.725 170.401 L 276.725 170.153 L 300.976 170.153 L 300.976 222.759 L 300.976 222.759 Q 300.976 224.375 302.344 225.495 L 302.344 225.495 L 309.682 230.842 L 309.682 231.091 L 276.725 231.091 L 276.725 230.842 L 284.063 225.495 L 284.063 225.495 Q 285.307 224.5 285.307 222.759 L 285.307 222.759 L 285.307 179.48 L 285.307 179.48 Q 285.307 177.615 284.063 176.62 L 284.063 176.62 L 276.725 170.401 Z  M 352.898 177.801 L 352.898 177.801 L 352.898 177.801 Q 349.727 171.148 343.757 171.148 L 343.757 171.148 L 343.757 171.148 Q 337.788 171.148 334.679 177.739 L 334.679 177.739 L 334.679 177.739 Q 331.57 184.33 331.57 200.497 L 331.57 200.497 L 331.57 200.497 Q 331.57 216.789 334.679 223.443 L 334.679 223.443 L 334.679 223.443 Q 337.788 230.096 343.757 230.096 L 343.757 230.096 L 343.757 230.096 Q 349.727 230.096 352.898 223.443 L 352.898 223.443 L 352.898 223.443 Q 356.069 216.789 356.069 200.622 L 356.069 200.622 L 356.069 200.622 Q 356.069 184.455 352.898 177.801 Z  M 365.645 223.878 L 365.645 223.878 L 365.645 223.878 Q 357.562 232.086 343.757 232.086 L 343.757 232.086 L 343.757 232.086 Q 329.953 232.086 321.869 223.878 L 321.869 223.878 L 321.869 223.878 Q 313.786 215.67 313.786 200.497 L 313.786 200.497 L 313.786 200.497 Q 313.786 185.449 321.869 177.304 L 321.869 177.304 L 321.869 177.304 Q 329.953 169.158 343.757 169.158 L 343.757 169.158 L 343.757 169.158 Q 357.686 169.158 365.708 177.304 L 365.708 177.304 L 365.708 177.304 Q 373.729 185.449 373.729 200.622 L 373.729 200.622 L 373.729 200.622 Q 373.729 215.67 365.645 223.878 Z  M 58.84 200.497 L 58.84 200.497 L 59.089 187.191 L 59.089 186.693 L 59.089 186.693 Q 59.089 179.604 56.229 175.438 L 56.229 175.438 L 56.229 175.438 Q 53.368 171.272 47.648 171.272 L 47.648 171.272 L 47.648 171.272 Q 45.658 171.272 45.098 171.521 L 45.098 171.521 L 45.098 171.521 Q 44.539 171.769 43.917 172.889 L 43.917 172.889 L 35.211 190.424 L 34.963 190.424 L 28.371 173.511 L 28.371 173.511 Q 39.44 169.158 51.13 169.158 L 51.13 169.158 L 51.13 169.158 Q 63.317 169.158 68.541 174.257 L 68.541 174.257 L 68.541 174.257 Q 74.386 180.351 74.386 194.279 L 74.386 194.279 L 74.386 196.518 L 73.64 216.292 L 73.64 216.292 Q 73.267 224.127 77.744 224.127 L 77.744 224.127 L 77.744 224.127 Q 80.48 224.127 81.475 221.142 L 81.475 221.142 L 81.723 221.142 L 81.723 221.142 Q 81.848 223.132 80.853 225.37 L 80.853 225.37 L 80.853 225.37 Q 79.609 228.355 76.811 230.22 L 76.811 230.22 L 76.811 230.22 Q 74.013 232.086 70.157 232.086 L 70.157 232.086 L 70.157 232.086 Q 65.183 232.086 62.012 228.852 L 62.012 228.852 L 62.012 228.852 Q 58.84 225.619 58.716 219.401 L 58.716 219.401 L 58.716 219.401 Q 56.851 225.246 52.311 228.666 L 52.311 228.666 L 52.311 228.666 Q 47.772 232.086 41.803 232.086 L 41.803 232.086 L 41.803 232.086 Q 34.838 232.086 30.05 227.609 L 30.05 227.609 L 30.05 227.609 Q 25.262 223.132 25.262 215.297 L 25.262 215.297 L 25.262 215.297 Q 25.262 206.591 31.418 201.679 L 31.418 201.679 L 31.418 201.679 Q 37.574 196.767 45.782 196.767 L 45.782 196.767 L 45.782 196.767 Q 53.866 196.767 58.84 200.497 Z  M 52.747 200.373 L 52.747 200.373 L 52.747 200.373 Q 47.15 200.373 43.917 204.104 L 43.917 204.104 L 43.917 204.104 Q 40.683 207.835 40.683 213.431 L 40.683 213.431 L 40.683 213.431 Q 40.683 218.406 43.108 221.266 L 43.108 221.266 L 43.108 221.266 Q 45.533 224.127 49.264 224.127 L 49.264 224.127 L 49.264 224.127 Q 54.985 224.127 58.592 218.281 L 58.592 218.281 L 58.84 201.368 L 58.84 201.368 Q 56.229 200.373 52.747 200.373 Z  M 80.728 143.663 L 105.104 140.803 L 105.104 182.589 L 105.104 182.589 Q 111.197 169.158 124.007 169.158 L 124.007 169.158 L 124.007 169.158 Q 134.329 169.158 140.299 177.428 L 140.299 177.428 L 140.299 177.428 Q 146.268 185.698 146.268 199.503 L 146.268 199.503 L 146.268 199.503 Q 146.268 213.804 139.241 222.945 L 139.241 222.945 L 139.241 222.945 Q 132.215 232.086 120.4 232.086 L 120.4 232.086 L 120.4 232.086 Q 109.456 232.086 104.855 224.748 L 104.855 224.748 L 89.683 232.086 L 89.434 232.086 L 89.434 152.12 L 89.434 152.12 Q 89.434 150.255 88.066 149.26 L 88.066 149.26 L 80.728 143.912 L 80.728 143.663 Z  M 116.545 176.993 L 116.545 176.993 L 116.545 176.993 Q 109.829 176.993 105.104 183.957 L 105.104 183.957 L 105.104 223.38 L 105.104 223.38 Q 108.461 227.111 114.307 227.111 L 114.307 227.111 L 114.307 227.111 Q 129.603 227.111 129.603 200.746 L 129.603 200.746 L 129.603 200.746 Q 129.603 188.932 126.121 182.962 L 126.121 182.962 L 126.121 182.962 Q 122.639 176.993 116.545 176.993 Z  M 150.248 143.663 L 174.499 140.803 L 174.499 222.759 L 174.499 222.759 Q 174.499 224.375 175.867 225.495 L 175.867 225.495 L 183.204 230.842 L 183.204 231.091 L 150.248 231.091 L 150.248 230.842 L 157.585 225.495 L 157.585 225.495 Q 158.829 224.5 158.829 222.759 L 158.829 222.759 L 158.829 152.12 L 158.829 152.12 Q 158.829 150.255 157.585 149.26 L 157.585 149.26 L 150.248 143.912 L 150.248 143.663 Z  M 221.135 200.497 L 221.135 200.497 L 221.384 187.191 L 221.384 186.693 L 221.384 186.693 Q 221.384 179.604 218.523 175.438 L 218.523 175.438 L 218.523 175.438 Q 215.663 171.272 209.942 171.272 L 209.942 171.272 L 209.942 171.272 Q 207.952 171.272 207.393 171.521 L 207.393 171.521 L 207.393 171.521 Q 206.833 171.769 206.211 172.889 L 206.211 172.889 L 197.506 190.424 L 197.257 190.424 L 190.666 173.511 L 190.666 173.511 Q 201.734 169.158 213.424 169.158 L 213.424 169.158 L 213.424 169.158 Q 225.612 169.158 230.835 174.257 L 230.835 174.257 L 230.835 174.257 Q 236.68 180.351 236.68 194.279 L 236.68 194.279 L 236.68 196.518 L 235.934 216.292 L 235.934 216.292 Q 235.561 224.127 240.038 224.127 L 240.038 224.127 L 240.038 224.127 Q 242.774 224.127 243.769 221.142 L 243.769 221.142 L 244.018 221.142 L 244.018 221.142 Q 244.142 223.132 243.147 225.37 L 243.147 225.37 L 243.147 225.37 Q 241.904 228.355 239.105 230.22 L 239.105 230.22 L 239.105 230.22 Q 236.307 232.086 232.452 232.086 L 232.452 232.086 L 232.452 232.086 Q 227.477 232.086 224.306 228.852 L 224.306 228.852 L 224.306 228.852 Q 221.135 225.619 221.011 219.401 L 221.011 219.401 L 221.011 219.401 Q 219.145 225.246 214.606 228.666 L 214.606 228.666 L 214.606 228.666 Q 210.067 232.086 204.097 232.086 L 204.097 232.086 L 204.097 232.086 Q 197.133 232.086 192.345 227.609 L 192.345 227.609 L 192.345 227.609 Q 187.557 223.132 187.557 215.297 L 187.557 215.297 L 187.557 215.297 Q 187.557 206.591 193.713 201.679 L 193.713 201.679 L 193.713 201.679 Q 199.869 196.767 208.077 196.767 L 208.077 196.767 L 208.077 196.767 Q 216.16 196.767 221.135 200.497 Z  M 215.041 200.373 L 215.041 200.373 L 215.041 200.373 Q 209.445 200.373 206.211 204.104 L 206.211 204.104 L 206.211 204.104 Q 202.978 207.835 202.978 213.431 L 202.978 213.431 L 202.978 213.431 Q 202.978 218.406 205.403 221.266 L 205.403 221.266 L 205.403 221.266 Q 207.828 224.127 211.559 224.127 L 211.559 224.127 L 211.559 224.127 Q 217.28 224.127 220.886 218.281 L 220.886 218.281 L 221.135 201.368 L 221.135 201.368 Q 218.523 200.373 215.041 200.373 Z  M 250.609 223.629 L 250.609 223.629 L 250.609 223.629 Q 250.609 219.898 253.159 217.349 L 253.159 217.349 L 253.159 217.349 Q 255.708 214.799 259.315 214.799 L 259.315 214.799 L 259.315 214.799 Q 263.045 214.799 265.595 217.287 L 265.595 217.287 L 265.595 217.287 Q 268.144 219.774 268.144 223.629 L 268.144 223.629 L 268.144 223.629 Q 268.144 227.236 265.595 229.661 L 265.595 229.661 L 265.595 229.661 Q 263.045 232.086 259.315 232.086 L 259.315 232.086 L 259.315 232.086 Q 255.708 232.086 253.159 229.661 L 253.159 229.661 L 253.159 229.661 Q 250.609 227.236 250.609 223.629 Z " fill="rgb(255,255,255)"/></g></g></svg>